# xmcd
#
# Track frame offsets:
#	182
#	15010
#	27315
#	43872
#	56312
#	72347
#	82125
#	95917
#	109245
#	124662
#	137145
#	147882
#
# Disc length: 2069 seconds
#
# Revision: 1
# Processed by: cddbd v1.4PL0 Copyright (c) Steve Scherf et al.
# Submitted via: audiograbber 1.80
#
DISCID=a608130c
DTITLE=Vabank unit - Snum zavidim
DYEAR=1900
DGENRE=
TTITLE0=Snum zavidim
TTITLE1=Plac nad krizem
TTITLE2=Jiny prijmeni
TTITLE3=Kousek strudlu
TTITLE4=Spolu budem plout rekou
TTITLE5=Muj plan
TTITLE6=Vy, kdo znate mou pani
TTITLE7=Zivot chtel
TTITLE8=Sen
TTITLE9=Co z toho mam
TTITLE10=Toulavy boty
TTITLE11=Back up and push
EXTD=
EXTT0=
EXTT1=
EXTT2=
EXTT3=
EXTT4=
EXTT5=
EXTT6=
EXTT7=
EXTT8=
EXTT9=
EXTT10=
EXTT11=
PLAYORDER=
